<mxfile host="app.diagrams.net" modified="2021-07-12T21:15:15.588Z" agent="5.0 (Windows)" etag="YlwMeUz4rhnDrzMlFLP0" version="14.8.6" type="github">
  <diagram name="Page-1" id="c37626ed-c26b-45fb-9056-f9ebc6bb27b6">
    <mxGraphModel dx="664" dy="662" grid="1" gridSize="10" guides="1" tooltips="1" connect="1" arrows="1" fold="1" page="1" pageScale="1" pageWidth="1600" pageHeight="1200" background="none" math="0" shadow="0">
      <root>
        <mxCell id="0" />
        <mxCell id="1" parent="0" />
        <mxCell id="DlXVdU6vSMar4KmjbTn8-1" value="" style="shape=mxgraph.cisco.computers_and_peripherals.pc;html=1;pointerEvents=1;dashed=0;fillColor=#036897;strokeColor=#ffffff;strokeWidth=2;verticalLabelPosition=bottom;verticalAlign=top;align=center;outlineConnect=0;" vertex="1" parent="1">
          <mxGeometry x="108" y="380" width="78" height="70" as="geometry" />
        </mxCell>
        <mxCell id="DlXVdU6vSMar4KmjbTn8-3" value="" style="shape=mxgraph.cisco.computers_and_peripherals.pc;html=1;pointerEvents=1;dashed=0;fillColor=#036897;strokeColor=#ffffff;strokeWidth=2;verticalLabelPosition=bottom;verticalAlign=top;align=center;outlineConnect=0;" vertex="1" parent="1">
          <mxGeometry x="30" y="380" width="78" height="70" as="geometry" />
        </mxCell>
        <mxCell id="DlXVdU6vSMar4KmjbTn8-4" value="" style="shape=mxgraph.cisco.computers_and_peripherals.pc;html=1;pointerEvents=1;dashed=0;fillColor=#036897;strokeColor=#ffffff;strokeWidth=2;verticalLabelPosition=bottom;verticalAlign=top;align=center;outlineConnect=0;" vertex="1" parent="1">
          <mxGeometry x="186" y="380" width="78" height="70" as="geometry" />
        </mxCell>
        <mxCell id="DlXVdU6vSMar4KmjbTn8-5" value="" style="shape=mxgraph.cisco.computers_and_peripherals.pc;html=1;pointerEvents=1;dashed=0;fillColor=#036897;strokeColor=#ffffff;strokeWidth=2;verticalLabelPosition=bottom;verticalAlign=top;align=center;outlineConnect=0;" vertex="1" parent="1">
          <mxGeometry x="290" y="380" width="78" height="70" as="geometry" />
        </mxCell>
        <mxCell id="DlXVdU6vSMar4KmjbTn8-6" value="" style="shape=mxgraph.cisco.computers_and_peripherals.printer;html=1;pointerEvents=1;dashed=0;fillColor=#036897;strokeColor=#ffffff;strokeWidth=2;verticalLabelPosition=bottom;verticalAlign=top;align=center;outlineConnect=0;" vertex="1" parent="1">
          <mxGeometry x="70" y="640" width="91" height="34" as="geometry" />
        </mxCell>
        <mxCell id="DlXVdU6vSMar4KmjbTn8-7" value="" style="shape=mxgraph.cisco.computers_and_peripherals.laptop;html=1;pointerEvents=1;dashed=0;fillColor=#036897;strokeColor=#ffffff;strokeWidth=2;verticalLabelPosition=bottom;verticalAlign=top;align=center;outlineConnect=0;" vertex="1" parent="1">
          <mxGeometry x="400" y="380" width="90" height="61" as="geometry" />
        </mxCell>
        <mxCell id="DlXVdU6vSMar4KmjbTn8-8" value="" style="shape=mxgraph.cisco.wireless.wireless_transport;html=1;pointerEvents=1;dashed=0;fillColor=#036897;strokeColor=#ffffff;strokeWidth=2;verticalLabelPosition=bottom;verticalAlign=top;align=center;outlineConnect=0;" vertex="1" parent="1">
          <mxGeometry x="420" y="200" width="77" height="54" as="geometry" />
        </mxCell>
        <mxCell id="DlXVdU6vSMar4KmjbTn8-9" value="" style="shape=mxgraph.cisco.routers.service_router;html=1;pointerEvents=1;dashed=0;fillColor=#036897;strokeColor=#ffffff;strokeWidth=2;verticalLabelPosition=bottom;verticalAlign=top;align=center;outlineConnect=0;" vertex="1" parent="1">
          <mxGeometry x="108" y="201" width="78" height="53" as="geometry" />
        </mxCell>
        <mxCell id="DlXVdU6vSMar4KmjbTn8-19" value="" style="endArrow=none;dashed=1;html=1;" edge="1" parent="1" source="DlXVdU6vSMar4KmjbTn8-7" target="DlXVdU6vSMar4KmjbTn8-8">
          <mxGeometry width="50" height="50" relative="1" as="geometry">
            <mxPoint x="440" y="320" as="sourcePoint" />
            <mxPoint x="490" y="270" as="targetPoint" />
          </mxGeometry>
        </mxCell>
        <mxCell id="DlXVdU6vSMar4KmjbTn8-22" value="" style="shape=link;html=1;startArrow=none;" edge="1" parent="1" source="DlXVdU6vSMar4KmjbTn8-47" target="DlXVdU6vSMar4KmjbTn8-8">
          <mxGeometry width="100" relative="1" as="geometry">
            <mxPoint x="180" y="230" as="sourcePoint" />
            <mxPoint x="280" y="230" as="targetPoint" />
          </mxGeometry>
        </mxCell>
        <mxCell id="DlXVdU6vSMar4KmjbTn8-25" value="" style="shape=link;html=1;startArrow=none;" edge="1" parent="1" source="DlXVdU6vSMar4KmjbTn8-32" target="DlXVdU6vSMar4KmjbTn8-1">
          <mxGeometry width="100" relative="1" as="geometry">
            <mxPoint x="220" y="260" as="sourcePoint" />
            <mxPoint x="320" y="260" as="targetPoint" />
          </mxGeometry>
        </mxCell>
        <mxCell id="DlXVdU6vSMar4KmjbTn8-27" value="" style="shape=link;html=1;startArrow=none;" edge="1" parent="1" source="DlXVdU6vSMar4KmjbTn8-31" target="DlXVdU6vSMar4KmjbTn8-3">
          <mxGeometry width="100" relative="1" as="geometry">
            <mxPoint x="220" y="260" as="sourcePoint" />
            <mxPoint x="320" y="260" as="targetPoint" />
          </mxGeometry>
        </mxCell>
        <mxCell id="DlXVdU6vSMar4KmjbTn8-28" value="" style="shape=link;html=1;startArrow=none;" edge="1" parent="1" source="DlXVdU6vSMar4KmjbTn8-35" target="DlXVdU6vSMar4KmjbTn8-4">
          <mxGeometry width="100" relative="1" as="geometry">
            <mxPoint x="220" y="260" as="sourcePoint" />
            <mxPoint x="320" y="260" as="targetPoint" />
          </mxGeometry>
        </mxCell>
        <mxCell id="DlXVdU6vSMar4KmjbTn8-29" value="" style="shape=link;html=1;width=-4;" edge="1" parent="1" source="DlXVdU6vSMar4KmjbTn8-9" target="DlXVdU6vSMar4KmjbTn8-5">
          <mxGeometry width="100" relative="1" as="geometry">
            <mxPoint x="220" y="260" as="sourcePoint" />
            <mxPoint x="370" y="370" as="targetPoint" />
          </mxGeometry>
        </mxCell>
        <mxCell id="DlXVdU6vSMar4KmjbTn8-30" value="" style="shape=mxgraph.cisco.routers.router;html=1;pointerEvents=1;dashed=0;fillColor=#036897;strokeColor=#ffffff;strokeWidth=2;verticalLabelPosition=bottom;verticalAlign=top;align=center;outlineConnect=0;" vertex="1" parent="1">
          <mxGeometry x="540" y="90" width="78" height="53" as="geometry" />
        </mxCell>
        <mxCell id="DlXVdU6vSMar4KmjbTn8-32" value="f0/1/1" style="text;html=1;resizable=0;autosize=1;align=center;verticalAlign=middle;points=[];strokeColor=none;rounded=0;fillColor=#ffffff;" vertex="1" parent="1">
          <mxGeometry x="122" y="300" width="50" height="20" as="geometry" />
        </mxCell>
        <mxCell id="DlXVdU6vSMar4KmjbTn8-34" value="" style="shape=link;html=1;endArrow=none;" edge="1" parent="1" source="DlXVdU6vSMar4KmjbTn8-9" target="DlXVdU6vSMar4KmjbTn8-32">
          <mxGeometry width="100" relative="1" as="geometry">
            <mxPoint x="147" y="254" as="sourcePoint" />
            <mxPoint x="147" y="380" as="targetPoint" />
          </mxGeometry>
        </mxCell>
        <mxCell id="DlXVdU6vSMar4KmjbTn8-35" value="f0/1/2" style="text;html=1;resizable=0;autosize=1;align=center;verticalAlign=middle;points=[];strokeColor=none;rounded=0;fillColor=#ffffff;" vertex="1" parent="1">
          <mxGeometry x="162" y="310" width="50" height="20" as="geometry" />
        </mxCell>
        <mxCell id="DlXVdU6vSMar4KmjbTn8-36" value="" style="shape=link;html=1;endArrow=none;" edge="1" parent="1" source="DlXVdU6vSMar4KmjbTn8-9" target="DlXVdU6vSMar4KmjbTn8-35">
          <mxGeometry width="100" relative="1" as="geometry">
            <mxPoint x="158.024" y="254" as="sourcePoint" />
            <mxPoint x="210.44000000000005" y="380" as="targetPoint" />
          </mxGeometry>
        </mxCell>
        <mxCell id="DlXVdU6vSMar4KmjbTn8-37" value="&lt;div&gt;f0/1/3&lt;/div&gt;" style="text;html=1;resizable=0;autosize=1;align=center;verticalAlign=middle;points=[];strokeColor=none;rounded=0;fillColor=#ffffff;" vertex="1" parent="1">
          <mxGeometry x="200" y="280" width="50" height="20" as="geometry" />
        </mxCell>
        <mxCell id="DlXVdU6vSMar4KmjbTn8-38" value="internet" style="ellipse;shape=cloud;whiteSpace=wrap;html=1;fillColor=#ffffff;" vertex="1" parent="1">
          <mxGeometry x="260" y="50" width="120" height="80" as="geometry" />
        </mxCell>
        <mxCell id="DlXVdU6vSMar4KmjbTn8-39" value="" style="shape=link;html=1;exitX=0.87;exitY=0.09;exitDx=0;exitDy=0;exitPerimeter=0;startArrow=none;" edge="1" parent="1" source="DlXVdU6vSMar4KmjbTn8-50" target="DlXVdU6vSMar4KmjbTn8-38">
          <mxGeometry width="100" relative="1" as="geometry">
            <mxPoint x="230" y="250" as="sourcePoint" />
            <mxPoint x="330" y="250" as="targetPoint" />
          </mxGeometry>
        </mxCell>
        <mxCell id="DlXVdU6vSMar4KmjbTn8-40" value="R1 1941" style="text;html=1;resizable=0;autosize=1;align=center;verticalAlign=middle;points=[];strokeColor=none;rounded=0;fillColor=#ffffff;" vertex="1" parent="1">
          <mxGeometry x="75" y="180" width="60" height="20" as="geometry" />
        </mxCell>
        <mxCell id="DlXVdU6vSMar4KmjbTn8-41" value="&lt;div&gt;AP1242N&lt;br&gt;&lt;/div&gt;" style="text;html=1;resizable=0;autosize=1;align=center;verticalAlign=middle;points=[];strokeColor=none;rounded=0;fillColor=#ffffff;" vertex="1" parent="1">
          <mxGeometry x="430" y="170" width="70" height="20" as="geometry" />
        </mxCell>
        <mxCell id="DlXVdU6vSMar4KmjbTn8-42" value="&lt;div&gt;PC-1&lt;br&gt;&lt;/div&gt;" style="text;html=1;resizable=0;autosize=1;align=center;verticalAlign=middle;points=[];strokeColor=none;rounded=0;fillColor=#ffffff;" vertex="1" parent="1">
          <mxGeometry x="40" y="460" width="40" height="20" as="geometry" />
        </mxCell>
        <mxCell id="DlXVdU6vSMar4KmjbTn8-43" value="&lt;div&gt;PC-2&lt;br&gt;&lt;/div&gt;" style="text;html=1;resizable=0;autosize=1;align=center;verticalAlign=middle;points=[];strokeColor=none;rounded=0;fillColor=#ffffff;" vertex="1" parent="1">
          <mxGeometry x="121" y="460" width="40" height="20" as="geometry" />
        </mxCell>
        <mxCell id="DlXVdU6vSMar4KmjbTn8-44" value="&lt;div&gt;PC-3&lt;br&gt;&lt;/div&gt;" style="text;html=1;resizable=0;autosize=1;align=center;verticalAlign=middle;points=[];strokeColor=none;rounded=0;fillColor=#ffffff;" vertex="1" parent="1">
          <mxGeometry x="200" y="460" width="40" height="20" as="geometry" />
        </mxCell>
        <mxCell id="DlXVdU6vSMar4KmjbTn8-45" value="&lt;div&gt;PC-4&lt;/div&gt;" style="text;html=1;resizable=0;autosize=1;align=center;verticalAlign=middle;points=[];strokeColor=none;rounded=0;fillColor=#ffffff;" vertex="1" parent="1">
          <mxGeometry x="300" y="460" width="40" height="20" as="geometry" />
        </mxCell>
        <mxCell id="DlXVdU6vSMar4KmjbTn8-46" value="&lt;div&gt;PC-5&lt;br&gt;&lt;/div&gt;" style="text;html=1;resizable=0;autosize=1;align=center;verticalAlign=middle;points=[];strokeColor=none;rounded=0;fillColor=#ffffff;" vertex="1" parent="1">
          <mxGeometry x="425" y="460" width="40" height="20" as="geometry" />
        </mxCell>
        <mxCell id="DlXVdU6vSMar4KmjbTn8-47" value="f0/1/4" style="text;html=1;resizable=0;autosize=1;align=center;verticalAlign=middle;points=[];strokeColor=none;rounded=0;fillColor=#ffffff;" vertex="1" parent="1">
          <mxGeometry x="200" y="220" width="50" height="20" as="geometry" />
        </mxCell>
        <mxCell id="DlXVdU6vSMar4KmjbTn8-48" value="" style="shape=link;html=1;endArrow=none;" edge="1" parent="1" target="DlXVdU6vSMar4KmjbTn8-47">
          <mxGeometry width="100" relative="1" as="geometry">
            <mxPoint x="180" y="230" as="sourcePoint" />
            <mxPoint x="420" y="227.41472172351882" as="targetPoint" />
          </mxGeometry>
        </mxCell>
        <mxCell id="DlXVdU6vSMar4KmjbTn8-31" value="f0/1/0" style="text;html=1;resizable=0;autosize=1;align=center;verticalAlign=middle;points=[];fillColor=none;strokeColor=none;rounded=0;" vertex="1" parent="1">
          <mxGeometry x="80" y="320" width="50" height="20" as="geometry" />
        </mxCell>
        <mxCell id="DlXVdU6vSMar4KmjbTn8-49" value="" style="shape=link;html=1;endArrow=none;" edge="1" parent="1" source="DlXVdU6vSMar4KmjbTn8-9" target="DlXVdU6vSMar4KmjbTn8-31">
          <mxGeometry width="100" relative="1" as="geometry">
            <mxPoint x="135.976" y="254" as="sourcePoint" />
            <mxPoint x="83.56000000000006" y="380" as="targetPoint" />
          </mxGeometry>
        </mxCell>
        <mxCell id="DlXVdU6vSMar4KmjbTn8-50" value="&lt;div&gt;g0/0&lt;br&gt;&lt;/div&gt;" style="text;html=1;resizable=0;autosize=1;align=center;verticalAlign=middle;points=[];strokeColor=none;rounded=0;fillColor=#ffffff;" vertex="1" parent="1">
          <mxGeometry x="172" y="180" width="40" height="20" as="geometry" />
        </mxCell>
        <mxCell id="DlXVdU6vSMar4KmjbTn8-51" value="" style="shape=link;html=1;exitX=0.87;exitY=0.09;exitDx=0;exitDy=0;exitPerimeter=0;endArrow=none;" edge="1" parent="1" source="DlXVdU6vSMar4KmjbTn8-9" target="DlXVdU6vSMar4KmjbTn8-50">
          <mxGeometry width="100" relative="1" as="geometry">
            <mxPoint x="175.86" y="205.76999999999998" as="sourcePoint" />
            <mxPoint x="281.54955410135824" y="120.70695332183209" as="targetPoint" />
          </mxGeometry>
        </mxCell>
      </root>
    </mxGraphModel>
  </diagram>
</mxfile>
